<svg width="210" height="55" viewBox="0 0 210 55" fill="none" xmlns="http://www.w3.org/2000/svg">
<rect width="210" height="55" rx="8" fill="#2F80ED"/>
<path d="M53.47 20.4H55.18L53.236 31.47H59.014L58.744 33H51.256L53.47 20.4ZM64.1101 33.216C63.3181 33.216 62.6161 33.048 62.0041 32.712C61.4041 32.364 60.9301 31.872 60.5821 31.236C60.2461 30.588 60.0781 29.826 60.0781 28.95C60.0781 27.954 60.2821 27.036 60.6901 26.196C61.1101 25.356 61.6981 24.684 62.4541 24.18C63.2221 23.676 64.1161 23.424 65.1361 23.424C65.8321 23.424 66.4201 23.556 66.9001 23.82C67.3921 24.084 67.7701 24.426 68.0341 24.846C68.2981 25.266 68.4301 25.716 68.4301 26.196C68.4301 26.856 68.2741 27.402 67.9621 27.834C67.6501 28.266 67.2481 28.602 66.7561 28.842C66.2641 29.07 65.7301 29.232 65.1541 29.328C64.5901 29.424 64.0501 29.472 63.5341 29.472C63.2101 29.472 62.8861 29.46 62.5621 29.436C62.2501 29.4 61.9741 29.364 61.7341 29.328C61.8301 30.12 62.1121 30.726 62.5801 31.146C63.0481 31.566 63.6481 31.776 64.3801 31.776C64.9801 31.776 65.5141 31.698 65.9821 31.542C66.4501 31.386 66.8461 31.23 67.1701 31.074L67.3141 32.514C66.9541 32.682 66.4981 32.844 65.9461 33C65.3941 33.144 64.7821 33.216 64.1101 33.216ZM65.0101 24.792C64.4461 24.792 63.9361 24.936 63.4801 25.224C63.0241 25.5 62.6461 25.884 62.3461 26.376C62.0581 26.856 61.8661 27.408 61.7701 28.032C62.0461 28.08 62.3221 28.122 62.5981 28.158C62.8861 28.182 63.1981 28.194 63.5341 28.194C64.5421 28.194 65.3401 28.056 65.9281 27.78C66.5161 27.492 66.8101 27.006 66.8101 26.322C66.8101 25.902 66.6421 25.542 66.3061 25.242C65.9821 24.942 65.5501 24.792 65.0101 24.792ZM69.3945 29.31C69.3945 28.146 69.6465 27.126 70.1505 26.25C70.6665 25.362 71.3745 24.672 72.2745 24.18C73.1745 23.676 74.2005 23.424 75.3525 23.424C76.0605 23.424 76.6785 23.496 77.2065 23.64C77.7465 23.784 78.1905 23.928 78.5385 24.072L77.4045 30.462C77.3925 30.522 77.3805 30.594 77.3685 30.678C77.3685 30.75 77.3685 30.828 77.3685 30.912C77.3685 31.248 77.4645 31.488 77.6565 31.632C77.8485 31.764 78.1005 31.83 78.4125 31.83L77.8545 33.09C77.2065 33.09 76.7085 32.934 76.3605 32.622C76.0245 32.298 75.8565 31.8 75.8565 31.128C75.5205 31.704 75.0945 32.196 74.5785 32.604C74.0745 33.012 73.4805 33.216 72.7965 33.216C72.2085 33.216 71.6565 33.06 71.1405 32.748C70.6245 32.424 70.2045 31.974 69.8805 31.398C69.5565 30.81 69.3945 30.114 69.3945 29.31ZM76.7565 25.026C76.5285 24.954 76.2885 24.9 76.0365 24.864C75.7965 24.816 75.5025 24.792 75.1545 24.792C74.3265 24.792 73.6065 24.978 72.9945 25.35C72.3825 25.722 71.9025 26.238 71.5545 26.898C71.2185 27.546 71.0505 28.284 71.0505 29.112C71.0505 29.688 71.1525 30.174 71.3565 30.57C71.5725 30.966 71.8485 31.266 72.1845 31.47C72.5205 31.674 72.8685 31.776 73.2285 31.776C73.7205 31.776 74.1705 31.608 74.5785 31.272C74.9865 30.936 75.3345 30.468 75.6225 29.868C75.9225 29.268 76.1385 28.584 76.2705 27.816L76.7565 25.026ZM81.5049 26.268C81.5169 26.208 81.5229 26.142 81.5229 26.07C81.5349 25.986 81.5409 25.902 81.5409 25.818C81.5409 25.482 81.4449 25.248 81.2529 25.116C81.0609 24.972 80.8089 24.9 80.4969 24.9L81.0549 23.64C81.6909 23.64 82.1769 23.796 82.5129 24.108C82.8609 24.408 83.0349 24.858 83.0349 25.458V25.818C83.3829 24.966 83.8269 24.354 84.3669 23.982C84.9189 23.61 85.5429 23.424 86.2389 23.424C86.5149 23.424 86.7489 23.448 86.9409 23.496C87.1449 23.532 87.3129 23.58 87.4449 23.64L86.7249 25.224C86.5809 25.164 86.4309 25.122 86.2749 25.098C86.1189 25.074 85.9389 25.062 85.7349 25.062C85.3029 25.062 84.8709 25.218 84.4389 25.53C84.0189 25.83 83.6349 26.334 83.2869 27.042C82.9509 27.75 82.6749 28.722 82.4589 29.958L81.9369 33H80.3169L81.5049 26.268ZM93.2278 24.846C92.8078 24.846 92.3518 25.002 91.8598 25.314C91.3678 25.626 90.9118 26.112 90.4918 26.772C90.0838 27.42 89.7898 28.254 89.6098 29.274L88.9618 33H87.3418L88.9798 23.64H90.5458L90.1498 25.8C90.5218 25.08 91.0198 24.504 91.6438 24.072C92.2798 23.64 92.9458 23.424 93.6418 23.424C94.4578 23.424 95.1118 23.676 95.6038 24.18C96.0958 24.672 96.3418 25.278 96.3418 25.998C96.3418 26.298 96.3058 26.676 96.2338 27.132L95.2078 33H93.5878L94.5778 27.402C94.6378 27.114 94.6738 26.904 94.6858 26.772C94.6978 26.628 94.7038 26.496 94.7038 26.376C94.7038 25.908 94.5658 25.536 94.2898 25.26C94.0258 24.984 93.6718 24.846 93.2278 24.846ZM115.344 22.47L110.682 30.156H109.008L106.902 22.398L105.048 33H103.428L105.642 20.4H107.964L110.088 28.428L114.84 20.4H117.414L115.2 33H113.49L115.344 22.47ZM122.635 33.216C121.747 33.216 120.979 33.036 120.331 32.676C119.683 32.316 119.179 31.818 118.819 31.182C118.471 30.534 118.297 29.802 118.297 28.986C118.297 27.942 118.507 27 118.927 26.16C119.359 25.32 119.959 24.654 120.727 24.162C121.495 23.67 122.401 23.424 123.445 23.424C124.333 23.424 125.101 23.604 125.749 23.964C126.397 24.324 126.895 24.822 127.243 25.458C127.603 26.094 127.783 26.826 127.783 27.654C127.783 28.686 127.573 29.628 127.153 30.48C126.733 31.32 126.133 31.986 125.353 32.478C124.585 32.97 123.679 33.216 122.635 33.216ZM122.689 31.776C123.409 31.776 124.021 31.602 124.525 31.254C125.041 30.894 125.437 30.414 125.713 29.814C125.989 29.214 126.127 28.542 126.127 27.798C126.127 27.246 126.019 26.754 125.803 26.322C125.587 25.878 125.275 25.524 124.867 25.26C124.459 24.996 123.967 24.864 123.391 24.864C122.683 24.864 122.071 25.044 121.555 25.404C121.039 25.752 120.643 26.226 120.367 26.826C120.091 27.426 119.953 28.098 119.953 28.842C119.953 29.382 120.061 29.874 120.277 30.318C120.493 30.762 120.805 31.116 121.213 31.38C121.621 31.644 122.113 31.776 122.689 31.776ZM130.565 26.268C130.577 26.208 130.583 26.142 130.583 26.07C130.595 25.986 130.601 25.902 130.601 25.818C130.601 25.482 130.505 25.248 130.313 25.116C130.121 24.972 129.869 24.9 129.557 24.9L130.115 23.64C130.751 23.64 131.237 23.796 131.573 24.108C131.921 24.408 132.095 24.858 132.095 25.458V25.818C132.443 24.966 132.887 24.354 133.427 23.982C133.979 23.61 134.603 23.424 135.299 23.424C135.575 23.424 135.809 23.448 136.001 23.496C136.205 23.532 136.373 23.58 136.505 23.64L135.785 25.224C135.641 25.164 135.491 25.122 135.335 25.098C135.179 25.074 134.999 25.062 134.795 25.062C134.363 25.062 133.931 25.218 133.499 25.53C133.079 25.83 132.695 26.334 132.347 27.042C132.011 27.75 131.735 28.722 131.519 29.958L130.997 33H129.377L130.565 26.268ZM140.259 33.216C139.467 33.216 138.765 33.048 138.153 32.712C137.553 32.364 137.079 31.872 136.731 31.236C136.395 30.588 136.227 29.826 136.227 28.95C136.227 27.954 136.431 27.036 136.839 26.196C137.259 25.356 137.847 24.684 138.603 24.18C139.371 23.676 140.265 23.424 141.285 23.424C141.981 23.424 142.569 23.556 143.049 23.82C143.541 24.084 143.919 24.426 144.183 24.846C144.447 25.266 144.579 25.716 144.579 26.196C144.579 26.856 144.423 27.402 144.111 27.834C143.799 28.266 143.397 28.602 142.905 28.842C142.413 29.07 141.879 29.232 141.303 29.328C140.739 29.424 140.199 29.472 139.683 29.472C139.359 29.472 139.035 29.46 138.711 29.436C138.399 29.4 138.123 29.364 137.883 29.328C137.979 30.12 138.261 30.726 138.729 31.146C139.197 31.566 139.797 31.776 140.529 31.776C141.129 31.776 141.663 31.698 142.131 31.542C142.599 31.386 142.995 31.23 143.319 31.074L143.463 32.514C143.103 32.682 142.647 32.844 142.095 33C141.543 33.144 140.931 33.216 140.259 33.216ZM141.159 24.792C140.595 24.792 140.085 24.936 139.629 25.224C139.173 25.5 138.795 25.884 138.495 26.376C138.207 26.856 138.015 27.408 137.919 28.032C138.195 28.08 138.471 28.122 138.747 28.158C139.035 28.182 139.347 28.194 139.683 28.194C140.691 28.194 141.489 28.056 142.077 27.78C142.665 27.492 142.959 27.006 142.959 26.322C142.959 25.902 142.791 25.542 142.455 25.242C142.131 24.942 141.699 24.792 141.159 24.792Z" fill="white"/>
<g clip-path="url(#clip0_8076_253)">
<path d="M159.574 27.4999L155.037 22.9624L156.333 21.6663L162.167 27.4999L156.333 33.3336L155.037 32.0374L159.574 27.4999Z" fill="white"/>
</g>
<defs>
<clipPath id="clip0_8076_253">
<rect width="22" height="22" fill="white" transform="translate(147.5 16.5)"/>
</clipPath>
</defs>
</svg>
